<svg xmlns="http://www.w3.org/2000/svg" xmlns:xlink="http://www.w3.org/1999/xlink" version="1.1" id="layer" x="0px" y="0px" style="enable-background:new -153 -46 652 652;" xml:space="preserve" viewBox="-64 178.9 474.8 171.7">
<style type="text/css">
	.st0{fill:#A7A9AC;}
	.st1{fill:#FFFFFF;}
	.st2{clip-path:url(#SVGID_2_);fill:url(#SVGID_3_);}
	.st3{clip-path:url(#SVGID_5_);fill:url(#SVGID_6_);}
</style>

<polygon class="st1" points="45.8,201.7 14.3,201.7 -7,231.2 -28.3,201.7 -59.2,201.7 -22.5,252.6 -64,309.8 -32.5,309.8   -6.8,274.4 18.8,309.8 49.7,309.8 8.7,253 "/>
<g>
	<defs>
		<polygon id="SVGID_1_" points="14.3,201.7 -7,231.2 8.7,253 45.8,201.7   "/>
	</defs>
	<clipPath id="SVGID_2_">
		<use xlink:href="#SVGID_1_" style="overflow:visible;"/>
	</clipPath>
	
		<linearGradient id="SVGID_3_" gradientUnits="userSpaceOnUse" x1="-167.1447" y1="709.2536" x2="-160.623" y2="709.2536" gradientTransform="matrix(-8.0323 4.6375 -4.6375 -8.0323 1996.8832 6681.5913)">
		<stop offset="0" style="stop-color:#FFFFFF"/>
		<stop offset="0.4829" style="stop-color:#FFFFFF"/>
		<stop offset="0.6329" style="stop-color:#FCFCFC"/>
		<stop offset="0.7582" style="stop-color:#F1F2F2"/>
		<stop offset="0.8741" style="stop-color:#E0E1E2"/>
		<stop offset="0.947" style="stop-color:#D1D3D4"/>
		<stop offset="1" style="stop-color:#D1D3D4"/>
	</linearGradient>
	<polygon class="st2" points="32.6,178.9 -29.2,214.5 6.2,275.8 68,240.2  "/>
</g>
<g>
	<defs>
		<polygon id="SVGID_4_" points="-6.8,274.4 18.7,309.7 49.6,309.7 8.7,253   "/>
	</defs>
	<clipPath id="SVGID_5_">
		<use xlink:href="#SVGID_4_" style="overflow:visible;"/>
	</clipPath>
	
		<linearGradient id="SVGID_6_" gradientUnits="userSpaceOnUse" x1="-125.8491" y1="712.5297" x2="-119.3274" y2="712.5297" gradientTransform="matrix(-8.8309 -5.0985 5.0985 -8.8309 -4689.332 5951.2617)">
		<stop offset="0" style="stop-color:#FFFFFF"/>
		<stop offset="0.4829" style="stop-color:#FFFFFF"/>
		<stop offset="0.6329" style="stop-color:#FCFCFC"/>
		<stop offset="0.7582" style="stop-color:#F1F2F2"/>
		<stop offset="0.8741" style="stop-color:#E0E1E2"/>
		<stop offset="0.947" style="stop-color:#D1D3D4"/>
		<stop offset="1" style="stop-color:#D1D3D4"/>
	</linearGradient>
	<polygon class="st3" points="74.2,267.2 7.3,228.6 -31.3,295.5 35.5,334.1  "/>
</g>
<path class="st1" d="M106.4,230.6v8.7c-3.5-3.6-7.3-6.2-11.5-8c-4.1-1.8-8.6-2.7-13.3-2.7c-10.3,0-19,3.9-26.2,11.6  c-7.2,7.8-10.8,17.7-10.8,29.9c0,11.7,3.7,21.5,11.1,29.4c7.4,7.9,16.2,11.8,26.4,11.8c4.5,0,8.7-0.8,12.6-2.4  c3.9-1.6,7.7-4.3,11.6-7.9v8.4h19.8v-78.8H106.4z M101.2,286.8c-4.1,4.3-9.2,6.5-15.4,6.5c-6,0-11.1-2.2-15.2-6.6  c-4.1-4.4-6.2-10-6.2-16.8c0-6.8,2-12.3,6.1-16.6c4-4.3,9.1-6.5,15.2-6.5c6.2,0,11.4,2.1,15.5,6.4c4.1,4.2,6.1,9.8,6.1,16.6  C107.4,276.8,105.3,282.5,101.2,286.8 M217.5,246.6l-16.4,9.1c-3.1-3.2-6.1-5.4-9.2-6.7c-3-1.2-6.6-1.9-10.6-1.9  c-7.4,0-13.4,2.2-17.9,6.6c-4.6,4.4-6.8,10-6.8,16.9c0,6.7,2.2,12.1,6.6,16.3c4.4,4.2,10.1,6.3,17.3,6.3c8.8,0,15.7-3,20.6-9  l15.6,10.7c-8.4,11-20.4,16.5-35.7,16.5c-13.9,0-24.7-4.1-32.5-12.3c-7.8-8.2-11.8-17.8-11.8-28.8c0-7.6,1.9-14.6,5.7-21.1  c3.8-6.4,9.1-11.4,16-15.1c6.8-3.7,14.5-5.5,22.9-5.5c7.8,0,14.9,1.6,21.1,4.7C208.5,236.5,213.5,240.9,217.5,246.6 M234.9,201.6  h19.8v29h11.7v17h-11.7v61.9h-19.8v-61.9h-10.2v-17h10.2V201.6z M280.6,200.1h19.8v109.3h-19.8V200.1z M309.6,230.6h20.3l20.3,49.2  l22.5-49.2h20.4l-54.1,120h-20.4l20.9-47.2L309.6,230.6z"/>
<path class="st1" d="M410.8,237.9c0,1.1-0.3,2.1-0.8,3.1c-0.6,1-1.3,1.7-2.3,2.3c-1,0.6-2,0.8-3.1,0.8c-1.1,0-2.2-0.3-3.1-0.8  c-1-0.6-1.7-1.3-2.3-2.3c-0.6-1-0.8-2-0.8-3.1c0-1.1,0.3-2.1,0.8-3.1c0.6-1,1.3-1.7,2.3-2.3c1-0.6,2-0.8,3.1-0.8  c1.1,0,2.2,0.3,3.1,0.8c1,0.6,1.7,1.3,2.3,2.3C410.5,235.7,410.8,236.8,410.8,237.9 M409.5,237.9c0-1.4-0.5-2.6-1.4-3.5  s-2.1-1.4-3.5-1.4c-1.4,0-2.5,0.5-3.5,1.4c-1,1-1.5,2.1-1.5,3.5c0,0.9,0.2,1.7,0.7,2.5c0.4,0.8,1,1.4,1.8,1.8  c0.8,0.4,1.6,0.7,2.5,0.7c0.9,0,1.7-0.2,2.5-0.7c0.8-0.4,1.4-1,1.8-1.8C409.3,239.6,409.5,238.7,409.5,237.9 M402,234.5h3  c0.6,0,1.1,0.1,1.4,0.2c0.3,0.1,0.5,0.4,0.7,0.7c0.2,0.3,0.3,0.7,0.3,1.1c0,0.4-0.1,0.7-0.2,0.9c-0.1,0.2-0.3,0.5-0.6,0.7  c0.2,0.1,0.4,0.3,0.5,0.5c0.1,0.2,0.1,0.5,0.2,0.9c0,0.8,0.1,1.3,0.1,1.5c0,0.1,0.1,0.3,0.3,0.4H406c-0.1-0.2-0.1-0.3-0.1-0.5  c0-0.1,0-0.3,0-0.6c0-0.6-0.1-1-0.1-1.1c-0.1-0.1-0.1-0.2-0.3-0.3c-0.1-0.1-0.4-0.1-0.7-0.1h-1.2v2.6H402V234.5z M403.5,235.8v1.6  h1.3c0.5,0,0.8-0.1,1-0.2c0.2-0.1,0.2-0.3,0.2-0.6c0-0.3-0.1-0.5-0.2-0.6c-0.2-0.1-0.5-0.2-1-0.2H403.5z"/>
</svg>